<svg width="1024" height="1024" viewBox="0 0 1024 1024" xmlns="http://www.w3.org/2000/svg" style="display:block" preserveAspectRatio="xMidYMid meet"><svg x="52" y="159" width="921" height="686" xmlns="http://www.w3.org/2000/svg" style="display:block" preserveAspectRatio="none"><svg version="1.1" xmlns="http://www.w3.org/2000/svg" style="display: block;" width="921" height="686" viewBox="212.98 155.20 1193.32 888.98" preserveAspectRatio="none"><g id="svg-group-5129aaf3-6485-4af4-ad63-60150d9c8ee7">
<path transform="translate(0,0)" fill="rgba(0, 0, 0, 1)" d="M 704.791 164.255 C 723.712 162.353 763.262 156.934 779.095 166.106 C 787.785 171.141 808.367 200.872 815.343 210.203 C 839.881 242.965 863.878 276.128 887.325 309.679 L 969.712 424.843 L 1227.05 778.862 C 1247.54 807.433 1266.71 836.149 1288.76 863.647 C 1299 876.417 1307.02 892.342 1317.15 905.2 C 1318.15 906.463 1318.86 906.02 1320.25 905.895 C 1323.37 902.082 1324.65 893.192 1324.65 888.374 C 1324.68 853.316 1324.62 817.986 1324.62 782.945 L 1324.62 564.037 L 1324.64 284.639 C 1324.61 246.322 1325.97 201.812 1324.96 164.427 C 1335.13 164.178 1392.4 162.232 1397.27 166.693 C 1399.15 173.919 1398.48 191.835 1399.25 200.323 C 1406.3 278.823 1398.67 358.32 1396.28 436.914 C 1395.3 469.256 1401.16 504.792 1402.1 537.296 C 1402.58 554.062 1401.71 571.855 1401.77 588.797 L 1401.97 731.111 C 1401.75 764.661 1403.56 798.948 1402.19 832.21 C 1399.6 894.961 1393.86 957.766 1396.3 1020.64 C 1396.39 1022.89 1400.96 1028.05 1402.5 1029.81 C 1401.81 1032.07 1396.56 1036.94 1394.59 1038.95 C 1375.8 1040.22 1349.25 1039.46 1329.91 1039.48 C 1315.32 1027.02 1297.04 998.978 1285.02 983.012 C 1259.27 948.813 1234.93 912.166 1209.6 877.627 L 861.826 402.607 C 852.242 389.657 797.204 308.9 788.996 302.994 L 775.028 285.036 C 774.952 290.381 774.125 309.015 776.282 312.994 C 774.563 318.74 775.264 360.436 775.225 369.181 L 774.933 532.065 L 774.827 629.767 C 774.77 646.895 774.063 665.698 774.785 682.571 C 762 682.13 709.696 684.397 702.361 681.066 C 699.999 668.919 704.328 647.126 704.136 633.344 C 703.898 616.195 701.813 600.379 701.483 583.248 C 701.112 564.004 704.06 545.965 704.266 526.872 L 704.791 164.255 z"/>
<path transform="translate(0,0)" fill="rgba(0, 0, 0, 1)" d="M 628.677 159.592 C 635.682 158.612 658.272 160.19 663.504 163.766 C 666.221 181.795 539.479 467.433 522.909 506.313 L 460.662 654.677 L 434.847 713.301 C 428.591 727.394 422.235 740.571 417.586 755.296 L 418.768 755.44 C 435.806 757.443 447.763 756.695 464.853 756.842 L 549.307 757.106 C 567.143 757.257 584.897 760.017 601.344 760.063 C 659.336 760.226 717.403 760.086 775.399 760.178 C 774.613 778.496 775.217 802.001 775.137 820.714 L 775.101 961.248 C 775.094 972.586 776.028 1029.69 773.273 1037.19 C 763.812 1042.44 719.561 1037.99 704.214 1039.9 C 704.046 1029.73 702.246 1019.69 701.905 1009.59 C 700.506 969.329 701.188 928.84 700.776 888.576 C 700.677 878.995 702.615 837.651 699.582 832.519 C 694.52 830.075 620.262 831.186 607.814 831.138 C 556.456 830.648 505.007 831.287 453.683 830.641 C 430.699 830.352 412.023 827.702 388.18 828.002 C 384.844 831.354 382.076 835.225 379.983 839.465 C 373.838 851.643 366.924 868.667 361.327 881.541 C 348.03 911.976 335.045 942.547 322.373 973.247 C 312.705 996.183 301.511 1014.43 293.804 1038.92 C 275.305 1041 232.259 1039.66 212.984 1038.53 C 215.549 1028.43 231.599 998.898 237.067 986.005 L 316.955 801.072 L 522.003 327.747 L 556.571 250.713 C 565.072 231.307 587.132 170.683 603.151 160.259 C 610.286 159.458 620.489 160.155 628.677 159.592 z"/>
<path transform="translate(0,0)" fill="rgba(164, 162, 164, 1)" fill-opacity="0.984314" d="M 775.028 285.036 L 788.996 302.994 C 785.048 305.931 779.715 309.65 776.282 312.994 C 774.125 309.015 774.952 290.381 775.028 285.036 z"/>
</g></svg></svg></svg>